<svg width="50" height="50" viewBox="0 0 50 50" fill="none" xmlns="http://www.w3.org/2000/svg">
<rect width="50" height="50" rx="4" fill="black"/>
<path fill-rule="evenodd" clip-rule="evenodd" d="M28.6753 19.2673C29.8042 18.6564 31.2406 17.7571 32.6788 16.525C32.9821 17.2084 33.0153 17.8048 32.859 18.2863C32.7483 18.6257 32.5397 18.9209 32.2654 19.1557C31.9683 19.4095 31.5973 19.5943 31.1871 19.6942C30.4089 19.8844 29.5003 19.7733 28.6753 19.2673ZM28.871 25.5269L30.3654 26.4638C27.3141 28.3198 26.4846 31.7661 25.4992 35.1229C24.514 31.7661 23.6844 28.3198 20.6332 26.4638L22.1276 25.5269C22.2722 25.4676 22.3958 25.3602 22.4806 25.22C22.5655 25.0799 22.6073 24.9141 22.6 24.7466C22.4631 21.6029 23.2452 20.2127 24.3002 19.3398C24.6786 19.0272 25.0917 18.8702 25.4992 18.8702C25.9068 18.8702 26.3199 19.0272 26.6984 19.3398C27.7534 20.2127 28.5355 21.6029 28.3986 24.7466C28.3914 24.9141 28.4332 25.0799 28.518 25.22C28.6029 25.3602 28.7264 25.4676 28.871 25.5269ZM25.4992 5C27.2266 5.05033 28.9583 5.41427 30.4612 6.12226C31.5019 6.61316 32.473 7.26161 33.3523 8.03701C33.7494 8.38707 34.0764 8.72524 34.4366 9.11455C35.4081 9.15099 36.8278 7.97974 37.4869 6.88378C36.3526 10.9197 31.1763 15.6858 27.5927 17.5095C27.5913 17.5088 27.5903 17.5079 27.5892 17.5071C26.946 16.9741 26.2227 16.7076 25.4992 16.7076C24.7758 16.7076 24.0526 16.9741 23.4095 17.5071C23.4083 17.5077 23.4074 17.5089 23.4059 17.5095C19.8222 15.6858 14.646 10.9197 13.5117 6.88378C14.1707 7.97974 15.5904 9.15099 16.5619 9.11455C16.9222 8.72537 17.2492 8.38707 17.6462 8.03701C18.5255 7.26161 19.4966 6.61316 20.5373 6.12226C22.0403 5.41427 23.772 5.05033 25.4992 5ZM22.3232 19.2673C21.1944 18.6564 19.7578 17.7571 18.3198 16.525C18.0166 17.2084 17.9833 17.8048 18.1395 18.2863C18.2503 18.6257 18.4589 18.9209 18.7331 19.1557C19.0303 19.4095 19.4013 19.5943 19.8115 19.6942C20.5897 19.8844 21.4982 19.7733 22.3232 19.2673Z" fill="white"/>
<path fill-rule="evenodd" clip-rule="evenodd" d="M34.2547 15.0159C35.0464 14.1487 35.744 13.189 36.305 12.3325L36.5899 12.9145C37.5071 14.906 37.9837 16.8895 37.9837 19.1217L37.9817 22.6639L37.9989 24.5002C38.0653 29.0082 38.9641 33.5692 41 37.7431L36.7403 34.0154L33.7263 39.3235L30.5599 36.0884L25.5 44.9999L20.4401 36.0886L17.2738 39.3236L14.2598 34.0155L10 37.7433C12.0359 33.5693 12.9347 29.0083 13.0012 24.5003L13.0184 22.6641L13.0165 19.1219C13.0165 16.8895 13.4929 14.906 14.4104 12.9146L14.6951 12.3327C15.2561 13.1891 15.9536 14.1487 16.7455 15.016L16.4982 15.5734C16.0178 16.656 15.8588 17.8665 16.233 19.0177C16.4742 19.7592 16.9145 20.3951 17.4821 20.8806C18.0332 21.352 18.6854 21.6697 19.3683 21.8366C19.8131 21.9453 20.2663 21.99 20.7165 21.9748C20.6115 22.6211 20.5656 23.2914 20.5626 23.9744L16.5444 26.4932L19.6452 28.3795C19.893 28.5303 20.1289 28.7031 20.3506 28.896C22.9069 31.387 24.4439 38.7562 25.5001 42.3557C26.5565 38.7562 28.0933 31.387 30.6498 28.896C30.8714 28.703 31.1073 28.5303 31.3552 28.3795L34.4559 26.4932L30.4376 23.9744C30.4347 23.2914 30.3888 22.6211 30.2837 21.9748C30.734 21.99 31.1871 21.9453 31.632 21.8366C32.3148 21.6697 32.9672 21.352 33.5182 20.8806C34.0856 20.3951 34.526 19.7592 34.7672 19.0177C35.1415 17.8665 34.9823 16.6561 34.5021 15.5734L34.2548 15.016L34.2547 15.0159Z" fill="white"/>
</svg>
