<svg width="50" height="50" viewBox="0 0 50 50" fill="none" xmlns="http://www.w3.org/2000/svg">
<rect width="50" height="50" rx="4" fill="#24A1DC"/>
<path d="M9.29627 23.146C9.29627 23.146 24.7727 16.6248 30.1226 14.2535C32.2243 13.2654 39.1027 10.3012 39.1027 10.3012C39.1027 10.3012 42.3509 8.91797 41.9687 12.0797C41.9687 13.463 41.2045 18.0081 40.4402 22.7507C39.2938 29.6671 38.1474 37.3739 38.1474 37.3739C38.1474 37.3739 37.9563 39.5477 36.4278 39.9429C34.8993 40.3381 32.4154 38.5596 32.0333 38.362C31.6511 38.1644 25.3459 34.0146 23.0531 31.8408C22.4799 31.248 21.7156 30.26 23.0531 28.8767C26.3012 25.9125 30.1226 21.9603 32.4154 19.589C33.5618 18.4033 34.5171 15.8344 30.1226 18.9961C23.8174 23.5412 17.5122 27.8886 17.5122 27.8886C17.5122 27.8886 16.1747 28.8767 13.3087 27.8886C10.6337 27.0982 7.57667 25.9125 7.57667 25.9125C7.57667 25.9125 5.47493 24.7268 9.29627 23.146Z" fill="white"/>
</svg>
