<svg width="456" height="46" viewBox="0 0 456 46" fill="none" xmlns="http://www.w3.org/2000/svg">
<mask id="path-1-outside-1_64_209" maskUnits="userSpaceOnUse" x="-1" y="-1" width="458" height="48" fill="black">
<rect fill="white" x="-1" y="-1" width="458" height="48"/>
<path d="M39.4008 34.952C41.0648 34.952 42.2168 34.056 42.8568 32.264C43.4968 30.4293 43.8168 27.464 43.8168 23.368L43.9448 7.688C43.9448 5.42666 44.4568 3.784 45.4808 2.76C46.5474 1.69333 48.3608 1.16 50.9208 1.16C52.4994 1.16 53.7581 1.416 54.6968 1.928C55.6781 2.44 56.5101 3.44267 57.1928 4.936C57.8754 6.42933 58.3448 8.456 58.6008 11.016C58.8568 13.576 58.9848 16.968 58.9848 21.192C58.9848 23.7093 58.7714 26.056 58.3448 28.232C57.9181 30.408 57.3421 32.3067 56.6168 33.928C55.8914 35.5493 55.0168 37.0213 53.9928 38.344C53.0114 39.624 51.9661 40.6907 50.8568 41.544C49.7474 42.3973 48.5741 43.1227 47.3368 43.72C46.0994 44.2747 44.8834 44.68 43.6888 44.936C42.5368 45.1493 41.4061 45.256 40.2968 45.256C36.4568 45.256 32.9794 44.04 29.8647 41.608C26.7928 44.1253 23.3154 45.384 19.4328 45.384C17.7688 45.384 16.1048 45.1493 14.4408 44.68C12.7768 44.168 11.0701 43.3147 9.32075 42.12C7.61408 40.9253 6.09942 39.4533 4.77675 37.704C3.45408 35.912 2.36608 33.608 1.51275 30.792C0.702083 27.9333 0.29675 24.776 0.29675 21.32C0.29675 15.7307 0.55275 11.5067 1.06475 8.648C1.61942 5.78933 2.43008 3.848 3.49675 2.824C4.60608 1.8 6.20608 1.288 8.29675 1.288C10.0461 1.288 11.4328 1.544 12.4568 2.056C13.4808 2.52533 14.2061 3.22933 14.6328 4.168C15.0594 5.10666 15.2728 6.32266 15.2728 7.816L15.3368 23.432C15.3368 27.528 15.6568 30.4933 16.2968 32.328C16.9368 34.1627 18.1954 35.08 20.0728 35.08C21.0114 35.08 21.7154 34.696 22.1848 33.928C22.6541 33.1173 22.9741 31.8373 23.1448 30.088C22.5901 27.6133 22.3128 23.752 22.3128 18.504C22.3128 15.56 22.3768 13.2133 22.5048 11.464C22.6328 9.71467 22.8248 8.2 23.0808 6.92C23.3368 5.64 23.7634 4.72267 24.3608 4.168C24.9581 3.61333 25.6194 3.22933 26.3448 3.016C27.1128 2.76 28.1581 2.632 29.4808 2.632C30.2488 2.632 30.9101 2.65333 31.4648 2.696C32.0621 2.73867 32.6168 2.86666 33.1287 3.08C33.6408 3.29333 34.0674 3.48533 34.4088 3.656C34.7501 3.82667 35.0701 4.14666 35.3688 4.616C35.6674 5.08533 35.9021 5.49067 36.0728 5.832C36.2434 6.17333 36.3928 6.728 36.5208 7.496C36.6914 8.264 36.7981 8.94667 36.8408 9.544C36.9261 10.0987 36.9688 10.952 36.9688 12.104C37.0114 13.2133 37.0328 14.1947 37.0328 15.048C37.0754 15.8587 37.0968 17.032 37.0968 18.568C37.0968 23.944 36.8194 27.912 36.2648 30.472C36.4354 32.008 36.7554 33.1387 37.2248 33.864C37.6941 34.5893 38.4194 34.952 39.4008 34.952ZM92.3628 19.016C94.6241 19.016 96.2028 19.3787 97.0988 20.104C98.0374 20.8293 98.5068 22.0667 98.5068 23.816C98.5068 25.2667 97.9521 26.312 96.8428 26.952C95.7761 27.5493 94.0908 27.848 91.7868 27.848H81.4188V34.632L95.3068 34.696C97.6961 34.696 99.4028 35.0587 100.427 35.784C101.493 36.4667 102.027 37.704 102.027 39.496C102.027 41.544 101.408 42.9733 100.171 43.784C98.9761 44.5947 97.1414 45 94.6668 45H73.9308C71.4134 45 69.5574 44.3387 68.3628 43.016C67.2108 41.6507 66.6348 39.2613 66.6348 35.848V8.84C66.6348 3.72 69.0668 1.16 73.9308 1.16H94.6668C97.1414 1.16 98.9761 1.544 100.171 2.312C101.408 3.08 102.027 4.46666 102.027 6.472C102.027 8.34933 101.493 9.672 100.427 10.44C99.4028 11.1653 97.6961 11.528 95.3068 11.528H81.3548V19.016H92.3628ZM151.397 11.912C151.397 10.5893 150.522 9.928 148.773 9.928C146.981 9.928 145.445 10.9307 144.165 12.936C142.885 14.9413 142.245 18.2907 142.245 22.984C142.245 27.336 142.97 30.5147 144.421 32.52C145.914 34.4827 147.663 35.464 149.669 35.464C150.309 35.464 150.885 35.336 151.397 35.08C151.951 34.824 152.399 34.44 152.741 33.928C153.082 33.416 153.253 32.7973 153.253 32.072C152.229 32.072 151.333 31.88 150.565 31.496C149.839 31.112 149.306 30.6427 148.965 30.088C148.623 29.4907 148.453 28.8507 148.453 28.168C148.453 26.632 148.858 25.48 149.669 24.712C150.479 23.944 151.866 23.56 153.829 23.56H161.573C164.047 23.56 165.967 24.0933 167.333 25.16C168.698 26.2267 169.381 28.104 169.381 30.792C169.381 34.7173 167.503 38.152 163.749 41.096C159.994 43.9973 155.535 45.448 150.373 45.448C145.637 45.448 141.413 44.5947 137.701 42.888C134.031 41.1813 131.109 38.6427 128.933 35.272C126.799 31.8587 125.733 27.8267 125.733 23.176C125.733 16.264 127.823 10.8027 132.005 6.792C136.186 2.78133 141.733 0.775997 148.645 0.775997C151.375 0.775997 153.829 0.98933 156.005 1.416C158.181 1.8 159.973 2.33333 161.381 3.016C162.831 3.69866 164.026 4.53066 164.965 5.512C165.946 6.45066 166.629 7.45333 167.013 8.52C167.439 9.58666 167.653 10.696 167.653 11.848C167.653 12.6587 167.525 13.448 167.269 14.216C167.013 14.9413 166.543 15.688 165.861 16.456C165.221 17.1813 164.218 17.7787 162.853 18.248C161.487 18.7173 159.845 18.952 157.925 18.952C155.109 18.952 153.317 18.5467 152.549 17.736C151.781 16.8827 151.397 14.9413 151.397 11.912ZM196.759 36.04C198.21 36.04 199.447 35.4 200.471 34.12C201.538 32.84 202.285 31.2613 202.711 29.384C203.181 27.5067 203.415 25.5013 203.415 23.368C203.415 21.192 203.181 19.144 202.711 17.224C202.242 15.2613 201.474 13.5973 200.407 12.232C199.383 10.8667 198.167 10.184 196.759 10.184C195.394 10.184 194.199 10.8667 193.175 12.232C192.151 13.5973 191.383 15.2613 190.871 17.224C190.359 19.1867 190.103 21.2347 190.103 23.368C190.103 25.5013 190.338 27.5067 190.807 29.384C191.319 31.2613 192.087 32.84 193.111 34.12C194.178 35.4 195.394 36.04 196.759 36.04ZM208.087 42.888C204.717 44.552 200.919 45.384 196.695 45.384C192.514 45.384 188.738 44.552 185.367 42.888C182.039 41.1813 179.373 38.6427 177.367 35.272C175.362 31.9013 174.359 27.9333 174.359 23.368C174.359 16.456 176.429 10.9733 180.567 6.92C184.749 2.824 190.146 0.775997 196.759 0.775997C203.373 0.775997 208.77 2.824 212.951 6.92C217.133 10.9733 219.223 16.456 219.223 23.368C219.223 27.9333 218.199 31.9013 216.151 35.272C214.146 38.6427 211.458 41.1813 208.087 42.888ZM281.829 21.576L273.829 37.96C273.147 39.3253 272.421 40.3067 271.653 40.904C270.885 41.4587 269.968 41.736 268.901 41.736C267.536 41.736 266.384 41.2667 265.445 40.328C264.507 39.3467 263.291 37.5973 261.797 35.08L254.373 21.576V39.688C254.373 41.5227 253.947 42.8667 253.093 43.72C252.283 44.5733 251.045 45 249.381 45C247.504 45 246.139 44.5947 245.285 43.784C244.432 42.9307 244.005 41.288 244.005 38.856V10.952C244.005 7.66667 244.752 5.192 246.245 3.528C247.739 1.864 250.256 1.032 253.797 1.032C255.12 1.032 256.272 1.26666 257.253 1.736C258.235 2.16267 258.96 2.67467 259.429 3.272C259.941 3.82666 260.432 4.53066 260.901 5.384L269.477 24.136L278.565 5.704C280.144 2.632 282.981 1.096 287.077 1.096C288.997 1.096 290.64 1.43733 292.005 2.12C293.371 2.76 294.437 3.82667 295.205 5.32C296.016 6.77067 296.421 8.60533 296.421 10.824V38.664C296.379 42.888 293.712 45 288.421 45C286.501 45 284.923 44.488 283.685 43.464C282.491 42.3973 281.872 40.6907 281.829 38.344V21.576ZM330.675 19.016C332.937 19.016 334.515 19.3787 335.411 20.104C336.35 20.8293 336.819 22.0667 336.819 23.816C336.819 25.2667 336.265 26.312 335.155 26.952C334.089 27.5493 332.403 27.848 330.099 27.848H319.731V34.632L333.619 34.696C336.009 34.696 337.715 35.0587 338.739 35.784C339.806 36.4667 340.339 37.704 340.339 39.496C340.339 41.544 339.721 42.9733 338.483 43.784C337.289 44.5947 335.454 45 332.979 45H312.243C309.726 45 307.87 44.3387 306.675 43.016C305.523 41.6507 304.947 39.2613 304.947 35.848V8.84C304.947 3.72 307.379 1.16 312.243 1.16H332.979C335.454 1.16 337.289 1.544 338.483 2.312C339.721 3.08 340.339 4.46666 340.339 6.472C340.339 8.34933 339.806 9.672 338.739 10.44C337.715 11.1653 336.009 11.528 333.619 11.528H319.667V19.016H330.675ZM368.009 36.04C369.46 36.04 370.697 35.4 371.721 34.12C372.788 32.84 373.535 31.2613 373.961 29.384C374.431 27.5067 374.665 25.5013 374.665 23.368C374.665 21.192 374.431 19.144 373.961 17.224C373.492 15.2613 372.724 13.5973 371.657 12.232C370.633 10.8667 369.417 10.184 368.009 10.184C366.644 10.184 365.449 10.8667 364.425 12.232C363.401 13.5973 362.633 15.2613 362.121 17.224C361.609 19.1867 361.353 21.2347 361.353 23.368C361.353 25.5013 361.588 27.5067 362.057 29.384C362.569 31.2613 363.337 32.84 364.361 34.12C365.428 35.4 366.644 36.04 368.009 36.04ZM379.337 42.888C375.967 44.552 372.169 45.384 367.945 45.384C363.764 45.384 359.988 44.552 356.617 42.888C353.289 41.1813 350.623 38.6427 348.617 35.272C346.612 31.9013 345.609 27.9333 345.609 23.368C345.609 16.456 347.679 10.9733 351.817 6.92C355.999 2.824 361.396 0.775997 368.009 0.775997C374.623 0.775997 380.02 2.824 384.201 6.92C388.383 10.9733 390.473 16.456 390.473 23.368C390.473 27.9333 389.449 31.9013 387.401 35.272C385.396 38.6427 382.708 41.1813 379.337 42.888ZM436.213 34.952C437.877 34.952 439.029 34.056 439.669 32.264C440.309 30.4293 440.629 27.464 440.629 23.368L440.757 7.688C440.757 5.42666 441.269 3.784 442.293 2.76C443.36 1.69333 445.173 1.16 447.733 1.16C449.312 1.16 450.571 1.416 451.509 1.928C452.491 2.44 453.323 3.44267 454.005 4.936C454.688 6.42933 455.157 8.456 455.413 11.016C455.669 13.576 455.797 16.968 455.797 21.192C455.797 23.7093 455.584 26.056 455.157 28.232C454.731 30.408 454.155 32.3067 453.429 33.928C452.704 35.5493 451.829 37.0213 450.805 38.344C449.824 39.624 448.779 40.6907 447.669 41.544C446.56 42.3973 445.387 43.1227 444.149 43.72C442.912 44.2747 441.696 44.68 440.501 44.936C439.349 45.1493 438.219 45.256 437.109 45.256C433.269 45.256 429.792 44.04 426.677 41.608C423.605 44.1253 420.128 45.384 416.245 45.384C414.581 45.384 412.917 45.1493 411.253 44.68C409.589 44.168 407.883 43.3147 406.133 42.12C404.427 40.9253 402.912 39.4533 401.589 37.704C400.267 35.912 399.179 33.608 398.325 30.792C397.515 27.9333 397.109 24.776 397.109 21.32C397.109 15.7307 397.365 11.5067 397.877 8.648C398.432 5.78933 399.243 3.848 400.309 2.824C401.419 1.8 403.019 1.288 405.109 1.288C406.859 1.288 408.245 1.544 409.269 2.056C410.293 2.52533 411.019 3.22933 411.445 4.168C411.872 5.10666 412.085 6.32266 412.085 7.816L412.149 23.432C412.149 27.528 412.469 30.4933 413.109 32.328C413.749 34.1627 415.008 35.08 416.885 35.08C417.824 35.08 418.528 34.696 418.997 33.928C419.467 33.1173 419.787 31.8373 419.957 30.088C419.403 27.6133 419.125 23.752 419.125 18.504C419.125 15.56 419.189 13.2133 419.317 11.464C419.445 9.71467 419.637 8.2 419.893 6.92C420.149 5.64 420.576 4.72267 421.173 4.168C421.771 3.61333 422.432 3.22933 423.157 3.016C423.925 2.76 424.971 2.632 426.293 2.632C427.061 2.632 427.723 2.65333 428.277 2.696C428.875 2.73867 429.429 2.86666 429.941 3.08C430.453 3.29333 430.88 3.48533 431.221 3.656C431.563 3.82667 431.883 4.14666 432.181 4.616C432.48 5.08533 432.715 5.49067 432.885 5.832C433.056 6.17333 433.205 6.728 433.333 7.496C433.504 8.264 433.611 8.94667 433.653 9.544C433.739 10.0987 433.781 10.952 433.781 12.104C433.824 13.2133 433.845 14.1947 433.845 15.048C433.888 15.8587 433.909 17.032 433.909 18.568C433.909 23.944 433.632 27.912 433.077 30.472C433.248 32.008 433.568 33.1387 434.037 33.864C434.507 34.5893 435.232 34.952 436.213 34.952Z"/>
</mask>
<path d="M39.4008 34.952C41.0648 34.952 42.2168 34.056 42.8568 32.264C43.4968 30.4293 43.8168 27.464 43.8168 23.368L43.9448 7.688C43.9448 5.42666 44.4568 3.784 45.4808 2.76C46.5474 1.69333 48.3608 1.16 50.9208 1.16C52.4994 1.16 53.7581 1.416 54.6968 1.928C55.6781 2.44 56.5101 3.44267 57.1928 4.936C57.8754 6.42933 58.3448 8.456 58.6008 11.016C58.8568 13.576 58.9848 16.968 58.9848 21.192C58.9848 23.7093 58.7714 26.056 58.3448 28.232C57.9181 30.408 57.3421 32.3067 56.6168 33.928C55.8914 35.5493 55.0168 37.0213 53.9928 38.344C53.0114 39.624 51.9661 40.6907 50.8568 41.544C49.7474 42.3973 48.5741 43.1227 47.3368 43.72C46.0994 44.2747 44.8834 44.68 43.6888 44.936C42.5368 45.1493 41.4061 45.256 40.2968 45.256C36.4568 45.256 32.9794 44.04 29.8647 41.608C26.7928 44.1253 23.3154 45.384 19.4328 45.384C17.7688 45.384 16.1048 45.1493 14.4408 44.68C12.7768 44.168 11.0701 43.3147 9.32075 42.12C7.61408 40.9253 6.09942 39.4533 4.77675 37.704C3.45408 35.912 2.36608 33.608 1.51275 30.792C0.702083 27.9333 0.29675 24.776 0.29675 21.32C0.29675 15.7307 0.55275 11.5067 1.06475 8.648C1.61942 5.78933 2.43008 3.848 3.49675 2.824C4.60608 1.8 6.20608 1.288 8.29675 1.288C10.0461 1.288 11.4328 1.544 12.4568 2.056C13.4808 2.52533 14.2061 3.22933 14.6328 4.168C15.0594 5.10666 15.2728 6.32266 15.2728 7.816L15.3368 23.432C15.3368 27.528 15.6568 30.4933 16.2968 32.328C16.9368 34.1627 18.1954 35.08 20.0728 35.08C21.0114 35.08 21.7154 34.696 22.1848 33.928C22.6541 33.1173 22.9741 31.8373 23.1448 30.088C22.5901 27.6133 22.3128 23.752 22.3128 18.504C22.3128 15.56 22.3768 13.2133 22.5048 11.464C22.6328 9.71467 22.8248 8.2 23.0808 6.92C23.3368 5.64 23.7634 4.72267 24.3608 4.168C24.9581 3.61333 25.6194 3.22933 26.3448 3.016C27.1128 2.76 28.1581 2.632 29.4808 2.632C30.2488 2.632 30.9101 2.65333 31.4648 2.696C32.0621 2.73867 32.6168 2.86666 33.1287 3.08C33.6408 3.29333 34.0674 3.48533 34.4088 3.656C34.7501 3.82667 35.0701 4.14666 35.3688 4.616C35.6674 5.08533 35.9021 5.49067 36.0728 5.832C36.2434 6.17333 36.3928 6.728 36.5208 7.496C36.6914 8.264 36.7981 8.94667 36.8408 9.544C36.9261 10.0987 36.9688 10.952 36.9688 12.104C37.0114 13.2133 37.0328 14.1947 37.0328 15.048C37.0754 15.8587 37.0968 17.032 37.0968 18.568C37.0968 23.944 36.8194 27.912 36.2648 30.472C36.4354 32.008 36.7554 33.1387 37.2248 33.864C37.6941 34.5893 38.4194 34.952 39.4008 34.952ZM92.3628 19.016C94.6241 19.016 96.2028 19.3787 97.0988 20.104C98.0374 20.8293 98.5068 22.0667 98.5068 23.816C98.5068 25.2667 97.9521 26.312 96.8428 26.952C95.7761 27.5493 94.0908 27.848 91.7868 27.848H81.4188V34.632L95.3068 34.696C97.6961 34.696 99.4028 35.0587 100.427 35.784C101.493 36.4667 102.027 37.704 102.027 39.496C102.027 41.544 101.408 42.9733 100.171 43.784C98.9761 44.5947 97.1414 45 94.6668 45H73.9308C71.4134 45 69.5574 44.3387 68.3628 43.016C67.2108 41.6507 66.6348 39.2613 66.6348 35.848V8.84C66.6348 3.72 69.0668 1.16 73.9308 1.16H94.6668C97.1414 1.16 98.9761 1.544 100.171 2.312C101.408 3.08 102.027 4.46666 102.027 6.472C102.027 8.34933 101.493 9.672 100.427 10.44C99.4028 11.1653 97.6961 11.528 95.3068 11.528H81.3548V19.016H92.3628ZM151.397 11.912C151.397 10.5893 150.522 9.928 148.773 9.928C146.981 9.928 145.445 10.9307 144.165 12.936C142.885 14.9413 142.245 18.2907 142.245 22.984C142.245 27.336 142.97 30.5147 144.421 32.52C145.914 34.4827 147.663 35.464 149.669 35.464C150.309 35.464 150.885 35.336 151.397 35.08C151.951 34.824 152.399 34.44 152.741 33.928C153.082 33.416 153.253 32.7973 153.253 32.072C152.229 32.072 151.333 31.88 150.565 31.496C149.839 31.112 149.306 30.6427 148.965 30.088C148.623 29.4907 148.453 28.8507 148.453 28.168C148.453 26.632 148.858 25.48 149.669 24.712C150.479 23.944 151.866 23.56 153.829 23.56H161.573C164.047 23.56 165.967 24.0933 167.333 25.16C168.698 26.2267 169.381 28.104 169.381 30.792C169.381 34.7173 167.503 38.152 163.749 41.096C159.994 43.9973 155.535 45.448 150.373 45.448C145.637 45.448 141.413 44.5947 137.701 42.888C134.031 41.1813 131.109 38.6427 128.933 35.272C126.799 31.8587 125.733 27.8267 125.733 23.176C125.733 16.264 127.823 10.8027 132.005 6.792C136.186 2.78133 141.733 0.775997 148.645 0.775997C151.375 0.775997 153.829 0.98933 156.005 1.416C158.181 1.8 159.973 2.33333 161.381 3.016C162.831 3.69866 164.026 4.53066 164.965 5.512C165.946 6.45066 166.629 7.45333 167.013 8.52C167.439 9.58666 167.653 10.696 167.653 11.848C167.653 12.6587 167.525 13.448 167.269 14.216C167.013 14.9413 166.543 15.688 165.861 16.456C165.221 17.1813 164.218 17.7787 162.853 18.248C161.487 18.7173 159.845 18.952 157.925 18.952C155.109 18.952 153.317 18.5467 152.549 17.736C151.781 16.8827 151.397 14.9413 151.397 11.912ZM196.759 36.04C198.21 36.04 199.447 35.4 200.471 34.12C201.538 32.84 202.285 31.2613 202.711 29.384C203.181 27.5067 203.415 25.5013 203.415 23.368C203.415 21.192 203.181 19.144 202.711 17.224C202.242 15.2613 201.474 13.5973 200.407 12.232C199.383 10.8667 198.167 10.184 196.759 10.184C195.394 10.184 194.199 10.8667 193.175 12.232C192.151 13.5973 191.383 15.2613 190.871 17.224C190.359 19.1867 190.103 21.2347 190.103 23.368C190.103 25.5013 190.338 27.5067 190.807 29.384C191.319 31.2613 192.087 32.84 193.111 34.12C194.178 35.4 195.394 36.04 196.759 36.04ZM208.087 42.888C204.717 44.552 200.919 45.384 196.695 45.384C192.514 45.384 188.738 44.552 185.367 42.888C182.039 41.1813 179.373 38.6427 177.367 35.272C175.362 31.9013 174.359 27.9333 174.359 23.368C174.359 16.456 176.429 10.9733 180.567 6.92C184.749 2.824 190.146 0.775997 196.759 0.775997C203.373 0.775997 208.77 2.824 212.951 6.92C217.133 10.9733 219.223 16.456 219.223 23.368C219.223 27.9333 218.199 31.9013 216.151 35.272C214.146 38.6427 211.458 41.1813 208.087 42.888ZM281.829 21.576L273.829 37.96C273.147 39.3253 272.421 40.3067 271.653 40.904C270.885 41.4587 269.968 41.736 268.901 41.736C267.536 41.736 266.384 41.2667 265.445 40.328C264.507 39.3467 263.291 37.5973 261.797 35.08L254.373 21.576V39.688C254.373 41.5227 253.947 42.8667 253.093 43.72C252.283 44.5733 251.045 45 249.381 45C247.504 45 246.139 44.5947 245.285 43.784C244.432 42.9307 244.005 41.288 244.005 38.856V10.952C244.005 7.66667 244.752 5.192 246.245 3.528C247.739 1.864 250.256 1.032 253.797 1.032C255.12 1.032 256.272 1.26666 257.253 1.736C258.235 2.16267 258.96 2.67467 259.429 3.272C259.941 3.82666 260.432 4.53066 260.901 5.384L269.477 24.136L278.565 5.704C280.144 2.632 282.981 1.096 287.077 1.096C288.997 1.096 290.64 1.43733 292.005 2.12C293.371 2.76 294.437 3.82667 295.205 5.32C296.016 6.77067 296.421 8.60533 296.421 10.824V38.664C296.379 42.888 293.712 45 288.421 45C286.501 45 284.923 44.488 283.685 43.464C282.491 42.3973 281.872 40.6907 281.829 38.344V21.576ZM330.675 19.016C332.937 19.016 334.515 19.3787 335.411 20.104C336.35 20.8293 336.819 22.0667 336.819 23.816C336.819 25.2667 336.265 26.312 335.155 26.952C334.089 27.5493 332.403 27.848 330.099 27.848H319.731V34.632L333.619 34.696C336.009 34.696 337.715 35.0587 338.739 35.784C339.806 36.4667 340.339 37.704 340.339 39.496C340.339 41.544 339.721 42.9733 338.483 43.784C337.289 44.5947 335.454 45 332.979 45H312.243C309.726 45 307.87 44.3387 306.675 43.016C305.523 41.6507 304.947 39.2613 304.947 35.848V8.84C304.947 3.72 307.379 1.16 312.243 1.16H332.979C335.454 1.16 337.289 1.544 338.483 2.312C339.721 3.08 340.339 4.46666 340.339 6.472C340.339 8.34933 339.806 9.672 338.739 10.44C337.715 11.1653 336.009 11.528 333.619 11.528H319.667V19.016H330.675ZM368.009 36.04C369.46 36.04 370.697 35.4 371.721 34.12C372.788 32.84 373.535 31.2613 373.961 29.384C374.431 27.5067 374.665 25.5013 374.665 23.368C374.665 21.192 374.431 19.144 373.961 17.224C373.492 15.2613 372.724 13.5973 371.657 12.232C370.633 10.8667 369.417 10.184 368.009 10.184C366.644 10.184 365.449 10.8667 364.425 12.232C363.401 13.5973 362.633 15.2613 362.121 17.224C361.609 19.1867 361.353 21.2347 361.353 23.368C361.353 25.5013 361.588 27.5067 362.057 29.384C362.569 31.2613 363.337 32.84 364.361 34.12C365.428 35.4 366.644 36.04 368.009 36.04ZM379.337 42.888C375.967 44.552 372.169 45.384 367.945 45.384C363.764 45.384 359.988 44.552 356.617 42.888C353.289 41.1813 350.623 38.6427 348.617 35.272C346.612 31.9013 345.609 27.9333 345.609 23.368C345.609 16.456 347.679 10.9733 351.817 6.92C355.999 2.824 361.396 0.775997 368.009 0.775997C374.623 0.775997 380.02 2.824 384.201 6.92C388.383 10.9733 390.473 16.456 390.473 23.368C390.473 27.9333 389.449 31.9013 387.401 35.272C385.396 38.6427 382.708 41.1813 379.337 42.888ZM436.213 34.952C437.877 34.952 439.029 34.056 439.669 32.264C440.309 30.4293 440.629 27.464 440.629 23.368L440.757 7.688C440.757 5.42666 441.269 3.784 442.293 2.76C443.36 1.69333 445.173 1.16 447.733 1.16C449.312 1.16 450.571 1.416 451.509 1.928C452.491 2.44 453.323 3.44267 454.005 4.936C454.688 6.42933 455.157 8.456 455.413 11.016C455.669 13.576 455.797 16.968 455.797 21.192C455.797 23.7093 455.584 26.056 455.157 28.232C454.731 30.408 454.155 32.3067 453.429 33.928C452.704 35.5493 451.829 37.0213 450.805 38.344C449.824 39.624 448.779 40.6907 447.669 41.544C446.56 42.3973 445.387 43.1227 444.149 43.72C442.912 44.2747 441.696 44.68 440.501 44.936C439.349 45.1493 438.219 45.256 437.109 45.256C433.269 45.256 429.792 44.04 426.677 41.608C423.605 44.1253 420.128 45.384 416.245 45.384C414.581 45.384 412.917 45.1493 411.253 44.68C409.589 44.168 407.883 43.3147 406.133 42.12C404.427 40.9253 402.912 39.4533 401.589 37.704C400.267 35.912 399.179 33.608 398.325 30.792C397.515 27.9333 397.109 24.776 397.109 21.32C397.109 15.7307 397.365 11.5067 397.877 8.648C398.432 5.78933 399.243 3.848 400.309 2.824C401.419 1.8 403.019 1.288 405.109 1.288C406.859 1.288 408.245 1.544 409.269 2.056C410.293 2.52533 411.019 3.22933 411.445 4.168C411.872 5.10666 412.085 6.32266 412.085 7.816L412.149 23.432C412.149 27.528 412.469 30.4933 413.109 32.328C413.749 34.1627 415.008 35.08 416.885 35.08C417.824 35.08 418.528 34.696 418.997 33.928C419.467 33.1173 419.787 31.8373 419.957 30.088C419.403 27.6133 419.125 23.752 419.125 18.504C419.125 15.56 419.189 13.2133 419.317 11.464C419.445 9.71467 419.637 8.2 419.893 6.92C420.149 5.64 420.576 4.72267 421.173 4.168C421.771 3.61333 422.432 3.22933 423.157 3.016C423.925 2.76 424.971 2.632 426.293 2.632C427.061 2.632 427.723 2.65333 428.277 2.696C428.875 2.73867 429.429 2.86666 429.941 3.08C430.453 3.29333 430.88 3.48533 431.221 3.656C431.563 3.82667 431.883 4.14666 432.181 4.616C432.48 5.08533 432.715 5.49067 432.885 5.832C433.056 6.17333 433.205 6.728 433.333 7.496C433.504 8.264 433.611 8.94667 433.653 9.544C433.739 10.0987 433.781 10.952 433.781 12.104C433.824 13.2133 433.845 14.1947 433.845 15.048C433.888 15.8587 433.909 17.032 433.909 18.568C433.909 23.944 433.632 27.912 433.077 30.472C433.248 32.008 433.568 33.1387 434.037 33.864C434.507 34.5893 435.232 34.952 436.213 34.952Z" fill="#F4EDE0" fill-opacity="0.61"/>
<path d="M42.8568 32.264L43.7985 32.6003L43.801 32.5934L42.8568 32.264ZM43.8168 23.368L42.8168 23.3598V23.368H43.8168ZM43.9448 7.688L44.9448 7.69616V7.688H43.9448ZM54.6968 1.928L54.2179 2.80589L54.226 2.81031L54.2342 2.81458L54.6968 1.928ZM57.1928 4.936L58.1022 4.52024L58.1022 4.52024L57.1928 4.936ZM58.6008 11.016L59.5958 10.9165L59.5958 10.9165L58.6008 11.016ZM58.3448 28.232L57.3634 28.0396L57.3634 28.0396L58.3448 28.232ZM53.9928 38.344L53.202 37.7318L53.1991 37.7356L53.9928 38.344ZM50.8568 41.544L51.4665 42.3366L51.4665 42.3366L50.8568 41.544ZM47.3368 43.72L47.7458 44.6325L47.7587 44.6267L47.7715 44.6206L47.3368 43.72ZM43.6888 44.936L43.8708 45.9193L43.8846 45.9167L43.8983 45.9138L43.6888 44.936ZM29.8647 41.608L30.4802 40.8198L29.8497 40.3275L29.2309 40.8345L29.8647 41.608ZM14.4408 44.68L14.1467 45.6358L14.1579 45.6392L14.1693 45.6424L14.4408 44.68ZM9.32075 42.12L8.74725 42.9393L8.75679 42.9458L9.32075 42.12ZM4.77675 37.704L3.97212 38.2979L3.97909 38.3071L4.77675 37.704ZM1.51275 30.792L0.550686 31.0648L0.553129 31.0734L0.555726 31.082L1.51275 30.792ZM1.06475 8.648L0.0830586 8.45752L0.081685 8.4646L0.0804136 8.4717L1.06475 8.648ZM3.49675 2.824L2.81847 2.08919L2.81128 2.09583L2.80422 2.10261L3.49675 2.824ZM12.4568 2.056L12.0095 2.95043L12.0247 2.958L12.0401 2.96506L12.4568 2.056ZM14.6328 4.168L15.5431 3.7542L15.5431 3.7542L14.6328 4.168ZM15.2728 7.816L14.2727 7.816L14.2728 7.8201L15.2728 7.816ZM15.3368 23.432H16.3368L16.3367 23.4279L15.3368 23.432ZM16.2968 32.328L17.241 31.9986L17.241 31.9986L16.2968 32.328ZM22.1848 33.928L23.038 34.4494L23.0442 34.4393L23.0502 34.429L22.1848 33.928ZM23.1448 30.088L24.14 30.1851L24.1556 30.0256L24.1205 29.8693L23.1448 30.088ZM22.5048 11.464L21.5074 11.391L21.5074 11.391L22.5048 11.464ZM23.0808 6.92L22.1002 6.72388L22.1002 6.72388L23.0808 6.92ZM26.3448 3.016L26.6269 3.97536L26.644 3.97033L26.661 3.96468L26.3448 3.016ZM31.4648 2.696L31.3881 3.69307L31.3935 3.69346L31.4648 2.696ZM33.1287 3.08L32.7441 4.00307L32.7441 4.00308L33.1287 3.08ZM35.3688 4.616L34.5251 5.15287L34.5251 5.15287L35.3688 4.616ZM36.0728 5.832L35.1783 6.27921L35.1783 6.27921L36.0728 5.832ZM36.5208 7.496L35.5344 7.6604L35.5388 7.6868L35.5446 7.71293L36.5208 7.496ZM36.8408 9.544L35.8433 9.61524L35.8462 9.65583L35.8524 9.69605L36.8408 9.544ZM36.9688 12.104H35.9688V12.1232L35.9695 12.1424L36.9688 12.104ZM37.0328 15.048H36.0328V15.0743L36.0341 15.1006L37.0328 15.048ZM36.2648 30.472L35.2874 30.2602L35.2528 30.42L35.2709 30.5824L36.2648 30.472ZM37.2248 33.864L36.3852 34.4072L36.3852 34.4073L37.2248 33.864ZM39.4008 35.952C40.4224 35.952 41.351 35.6727 42.1267 35.0694C42.8921 34.474 43.4336 33.6219 43.7985 32.6003L41.915 31.9277C41.6399 32.6981 41.2854 33.19 40.8988 33.4906C40.5225 33.7833 40.0431 33.952 39.4008 33.952V35.952ZM43.801 32.5934C44.5 30.5896 44.8168 27.4801 44.8168 23.368H42.8168C42.8168 27.4479 42.4935 30.2691 41.9126 31.9346L43.801 32.5934ZM44.8167 23.3762L44.9447 7.69616L42.9448 7.67984L42.8168 23.3598L44.8167 23.3762ZM44.9448 7.688C44.9448 5.5471 45.4336 4.22138 46.1879 3.46711L44.7736 2.05289C43.4799 3.34662 42.9448 5.30623 42.9448 7.688H44.9448ZM46.1879 3.46711C46.9724 2.6826 48.4526 2.16 50.9208 2.16V0.159996C48.269 0.159996 46.1225 0.704058 44.7736 2.05289L46.1879 3.46711ZM50.9208 2.16C52.406 2.16 53.4796 2.4032 54.2179 2.80589L55.1756 1.0501C54.0365 0.428797 52.5928 0.159996 50.9208 0.159996V2.16ZM54.2342 2.81458C54.9431 3.18447 55.6502 3.96694 56.2833 5.35176L58.1022 4.52024C57.37 2.91839 56.413 1.69553 55.1593 1.04141L54.2342 2.81458ZM56.2833 5.35176C56.9019 6.70502 57.3552 8.61018 57.6057 11.1155L59.5958 10.9165C59.3343 8.30182 58.8489 6.15365 58.1022 4.52024L56.2833 5.35176ZM57.6057 11.1155C57.857 13.6283 57.9848 16.9831 57.9848 21.192H59.9848C59.9848 16.9529 59.8565 13.5237 59.5958 10.9165L57.6057 11.1155ZM57.9848 21.192C57.9848 23.6532 57.7761 25.9348 57.3634 28.0396L59.3261 28.4244C59.7667 26.1772 59.9848 23.7654 59.9848 21.192H57.9848ZM57.3634 28.0396C56.9479 30.1587 56.3918 31.982 55.7039 33.5196L57.5296 34.3364C58.2924 32.6313 58.8883 30.6573 59.3261 28.4244L57.3634 28.0396ZM55.7039 33.5196C55.0091 35.0729 54.1745 36.4758 53.202 37.7318L54.7835 38.9562C55.859 37.5669 56.7738 36.0258 57.5296 34.3364L55.7039 33.5196ZM53.1991 37.7356C52.263 38.9567 51.2778 39.9585 50.247 40.7514L51.4665 42.3366C52.6544 41.4228 53.7599 40.2913 54.7864 38.9524L53.1991 37.7356ZM50.247 40.7514C49.1911 41.5636 48.0763 42.2525 46.902 42.8194L47.7715 44.6206C49.0719 43.9928 50.3037 43.2311 51.4665 42.3366L50.247 40.7514ZM46.9277 42.8075C45.7475 43.3365 44.5983 43.7184 43.4792 43.9582L43.8983 45.9138C45.1686 45.6416 46.4513 45.2128 47.7458 44.6325L46.9277 42.8075ZM43.5067 43.9527C42.4114 44.1555 41.3417 44.256 40.2968 44.256V46.256C41.4705 46.256 42.6621 46.1431 43.8708 45.9193L43.5067 43.9527ZM40.2968 44.256C36.6867 44.256 33.4246 43.1189 30.4802 40.8198L29.2493 42.3962C32.5342 44.9611 36.2268 46.256 40.2968 46.256V44.256ZM29.2309 40.8345C26.3332 43.209 23.0786 44.384 19.4328 44.384V46.384C23.5522 46.384 27.2523 45.0416 30.4986 42.3815L29.2309 40.8345ZM19.4328 44.384C17.8641 44.384 16.2913 44.1629 14.7122 43.7176L14.1693 45.6424C15.9182 46.1357 17.6734 46.384 19.4328 46.384V44.384ZM14.7348 43.7242C13.185 43.2473 11.5684 42.444 9.88471 41.2942L8.75679 42.9458C10.5717 44.1853 12.3685 45.0887 14.1467 45.6358L14.7348 43.7242ZM9.89421 41.3008C8.27753 40.1691 6.83743 38.7713 5.57441 37.1009L3.97909 38.3071C5.36141 40.1353 6.95064 41.6816 8.74729 42.9392L9.89421 41.3008ZM5.58132 37.1101C4.34429 35.4342 3.30001 33.2418 2.46977 30.502L0.555726 31.082C1.43215 33.9742 2.56388 36.3898 3.97218 38.2979L5.58132 37.1101ZM2.47481 30.5192C1.69302 27.7623 1.29675 24.6984 1.29675 21.32H-0.70325C-0.70325 24.8536 -0.288855 28.1043 0.550686 31.0648L2.47481 30.5192ZM1.29675 21.32C1.29675 15.7463 1.55309 11.5936 2.04909 8.8243L0.0804136 8.4717C-0.447587 11.4197 -0.70325 15.7151 -0.70325 21.32H1.29675ZM2.04644 8.83848C2.59371 6.01796 3.35846 4.34298 4.18928 3.54538L2.80422 2.10261C1.50171 3.35302 0.645128 5.5607 0.0830586 8.45752L2.04644 8.83848ZM4.17503 3.5588C5.03874 2.76153 6.36007 2.288 8.29675 2.288V0.287998C6.0521 0.287998 4.17342 0.838468 2.81847 2.08919L4.17503 3.5588ZM8.29675 2.288C9.96534 2.288 11.1784 2.53488 12.0095 2.95043L12.904 1.16157C11.6871 0.553122 10.1268 0.287998 8.29675 0.287998V2.288ZM12.0401 2.96506C12.8671 3.3441 13.4048 3.88315 13.7224 4.5818L15.5431 3.7542C15.0074 2.57551 14.0944 1.70656 12.8734 1.14693L12.0401 2.96506ZM13.7224 4.5818C14.0697 5.34579 14.2728 6.4064 14.2728 7.816H16.2728C16.2728 6.23893 16.0492 4.86753 15.5431 3.7542L13.7224 4.5818ZM14.2728 7.8201L14.3368 23.4361L16.3367 23.4279L16.2727 7.8119L14.2728 7.8201ZM14.3368 23.432C14.3368 27.5441 14.6535 30.6536 15.3526 32.6574L17.241 31.9986C16.66 30.3331 16.3368 27.5119 16.3368 23.432H14.3368ZM15.3526 32.6574C15.7228 33.7189 16.3014 34.595 17.1318 35.2001C17.9649 35.8074 18.9669 36.08 20.0728 36.08V34.08C19.3013 34.08 18.7352 33.894 18.3097 33.5839C17.8814 33.2717 17.5107 32.7718 17.241 31.9986L15.3526 32.6574ZM20.0728 36.08C21.3416 36.08 22.3778 35.5299 23.038 34.4494L21.3315 33.4065C21.0531 33.8621 20.6812 34.08 20.0728 34.08V36.08ZM23.0502 34.429C23.6294 33.4285 23.9655 31.9736 24.14 30.1851L22.1495 29.9909C21.9826 31.7011 21.6787 32.8062 21.3193 33.427L23.0502 34.429ZM24.1205 29.8693C23.5913 27.5081 23.3128 23.7391 23.3128 18.504H21.3128C21.3128 23.7649 21.5889 27.7186 22.169 30.3067L24.1205 29.8693ZM23.3128 18.504C23.3128 15.5704 23.3766 13.2513 23.5021 11.537L21.5074 11.391C21.3769 13.1754 21.3128 15.5496 21.3128 18.504H23.3128ZM23.5021 11.537C23.628 9.81594 23.8157 8.34437 24.0613 7.11611L22.1002 6.72388C21.8338 8.05563 21.6375 9.61339 21.5074 11.391L23.5021 11.537ZM24.0613 7.11611C24.299 5.92794 24.6654 5.24971 25.0412 4.90079L23.6803 3.43521C22.8614 4.19562 22.3745 5.35206 22.1002 6.72388L24.0613 7.11611ZM25.0412 4.90079C25.5342 4.44305 26.0615 4.14166 26.6269 3.97536L26.0626 2.05663C25.1773 2.317 24.382 2.78361 23.6803 3.43521L25.0412 4.90079ZM26.661 3.96468C27.283 3.75733 28.2065 3.632 29.4808 3.632V1.632C28.1097 1.632 26.9425 1.76266 26.0285 2.06732L26.661 3.96468ZM29.4808 3.632C30.232 3.632 30.8664 3.65293 31.3881 3.69305L31.5415 1.69894C30.9538 1.65374 30.2655 1.632 29.4808 1.632V3.632ZM31.3935 3.69346C31.8916 3.72904 32.3395 3.83449 32.7441 4.00307L33.5134 2.15692C32.894 1.89884 32.2325 1.74829 31.536 1.69854L31.3935 3.69346ZM32.7441 4.00308C33.2435 4.21115 33.6476 4.39347 33.9615 4.55043L34.856 2.76157C34.4872 2.57719 34.038 2.37551 33.5134 2.15692L32.7441 4.00308ZM33.9615 4.55043C34.0829 4.61113 34.2819 4.77072 34.5251 5.15287L36.2124 4.07912C35.8583 3.52261 35.4172 3.0422 34.856 2.76157L33.9615 4.55043ZM34.5251 5.15287C34.8128 5.60504 35.0282 5.97902 35.1783 6.27921L36.9672 5.38479C36.7759 5.00231 36.522 4.56562 36.2124 4.07912L34.5251 5.15287ZM35.1783 6.27921C35.2787 6.48001 35.4094 6.91071 35.5344 7.6604L37.5071 7.3316C37.3761 6.54529 37.2081 5.86665 36.9672 5.38478L35.1783 6.27921ZM35.5446 7.71293C35.7077 8.4469 35.805 9.07937 35.8433 9.61524L37.8382 9.47275C37.7912 8.81396 37.6752 8.08109 37.4969 7.27907L35.5446 7.71293ZM35.8524 9.69605C35.9255 10.1716 35.9688 10.9616 35.9688 12.104H37.9688C37.9688 10.9424 37.9266 10.0258 37.8291 9.39194L35.8524 9.69605ZM35.9695 12.1424C36.0118 13.2425 36.0328 14.2106 36.0328 15.048H38.0328C38.0328 14.1787 38.011 13.1841 37.968 12.0656L35.9695 12.1424ZM36.0341 15.1006C36.0754 15.8846 36.0968 17.037 36.0968 18.568H38.0968C38.0968 17.027 38.0754 15.8327 38.0314 14.9954L36.0341 15.1006ZM36.0968 18.568C36.0968 23.9308 35.8183 27.8098 35.2874 30.2602L37.2421 30.6838C37.8205 28.0142 38.0968 23.9572 38.0968 18.568H36.0968ZM35.2709 30.5824C35.4472 32.1692 35.7889 33.4858 36.3852 34.4072L38.0643 33.3207C37.7219 32.7916 37.4237 31.8468 37.2586 30.3616L35.2709 30.5824ZM36.3852 34.4073C37.0664 35.4601 38.1344 35.952 39.4008 35.952V33.952C38.7045 33.952 38.3218 33.7186 38.0643 33.3207L36.3852 34.4073ZM97.0988 20.104L96.4696 20.8812L96.4783 20.8884L96.4873 20.8953L97.0988 20.104ZM96.8428 26.952L97.3314 27.8246L97.3425 27.8182L96.8428 26.952ZM81.4188 27.848V26.848H80.4188V27.848H81.4188ZM81.4188 34.632H80.4188V35.6274L81.4141 35.632L81.4188 34.632ZM95.3068 34.696L95.3021 35.696H95.3068V34.696ZM100.427 35.784L99.8487 36.6L99.8679 36.6136L99.8877 36.6263L100.427 35.784ZM100.171 43.784L99.6227 42.9475L99.616 42.952L99.6093 42.9565L100.171 43.784ZM68.3628 43.016L67.5985 43.6609L67.6093 43.6738L67.6206 43.6863L68.3628 43.016ZM100.171 2.312L99.63 3.15318L99.6367 3.15746L99.6434 3.16164L100.171 2.312ZM100.427 10.44L101.005 11.256L101.011 11.2515L100.427 10.44ZM81.3548 11.528V10.528H80.3548V11.528H81.3548ZM81.3548 19.016H80.3548V20.016H81.3548V19.016ZM92.3628 20.016C94.5827 20.016 95.8568 20.3852 96.4696 20.8812L97.7279 19.3268C96.5487 18.3721 94.6655 18.016 92.3628 18.016V20.016ZM96.4873 20.8953C97.0812 21.3542 97.5068 22.2237 97.5068 23.816H99.5068C99.5068 21.9096 98.9936 20.3044 97.7102 19.3127L96.4873 20.8953ZM97.5068 23.816C97.5068 24.9663 97.0964 25.6512 96.343 26.0858L97.3425 27.8182C98.8078 26.9728 99.5068 25.567 99.5068 23.816H97.5068ZM96.3541 26.0795C95.518 26.5477 94.0464 26.848 91.7868 26.848V28.848C94.1351 28.848 96.0342 28.5509 97.3314 27.8245L96.3541 26.0795ZM91.7868 26.848H81.4188V28.848H91.7868V26.848ZM80.4188 27.848V34.632H82.4188V27.848H80.4188ZM81.4141 35.632L95.3021 35.696L95.3114 33.696L81.4234 33.632L81.4141 35.632ZM95.3068 35.696C97.6484 35.696 99.0888 36.0617 99.8487 36.6L101.005 34.968C99.7167 34.0556 97.7438 33.696 95.3068 33.696V35.696ZM99.8877 36.6263C100.558 37.055 101.027 37.8905 101.027 39.496H103.027C103.027 37.5175 102.429 35.8783 100.966 34.9417L99.8877 36.6263ZM101.027 39.496C101.027 41.3489 100.477 42.388 99.6227 42.9475L100.719 44.6205C102.339 43.5587 103.027 41.7391 103.027 39.496H101.027ZM99.6093 42.9565C98.661 43.5999 97.0683 44 94.6668 44V46C97.2145 46 99.2911 45.5894 100.732 44.6115L99.6093 42.9565ZM94.6668 44H73.9308V46H94.6668V44ZM73.9308 44C71.5764 44 70.0422 43.3835 69.1049 42.3457L67.6206 43.6863C69.0727 45.2939 71.2505 46 73.9308 46V44ZM69.127 42.3711C68.2151 41.2903 67.6348 39.2117 67.6348 35.848H65.6348C65.6348 39.3109 66.2064 42.0111 67.5985 43.6609L69.127 42.3711ZM67.6348 35.848V8.84H65.6348V35.848H67.6348ZM67.6348 8.84C67.6348 6.42171 68.21 4.79375 69.1838 3.76875C70.1484 2.75335 71.6664 2.16 73.9308 2.16V0.159996C71.3311 0.159996 69.2011 0.846646 67.7338 2.39125C66.2755 3.92624 65.6348 6.13829 65.6348 8.84H67.6348ZM73.9308 2.16H94.6668V0.159996H73.9308V2.16ZM94.6668 2.16C97.0747 2.16 98.6768 2.54038 99.63 3.15318L100.712 1.47082C99.2754 0.547614 97.2081 0.159996 94.6668 0.159996V2.16ZM99.6434 3.16164C100.482 3.68211 101.027 4.66785 101.027 6.472H103.027C103.027 4.26548 102.334 2.47789 100.698 1.46236L99.6434 3.16164ZM101.027 6.472C101.027 8.17437 100.548 9.12022 99.8424 9.62846L101.011 11.2515C102.438 10.2238 103.027 8.52429 103.027 6.472H101.027ZM99.8487 9.62397C99.0888 10.1623 97.6484 10.528 95.3068 10.528V12.528C97.7438 12.528 99.7167 12.1684 101.005 11.256L99.8487 9.62397ZM95.3068 10.528H81.3548V12.528H95.3068V10.528ZM80.3548 11.528V19.016H82.3548V11.528H80.3548ZM81.3548 20.016H92.3628V18.016H81.3548V20.016ZM144.165 12.936L143.322 12.398L143.322 12.398L144.165 12.936ZM144.421 32.52L143.611 33.1061L143.618 33.1159L143.625 33.1255L144.421 32.52ZM151.397 35.08L150.978 34.172L150.964 34.1786L150.95 34.1856L151.397 35.08ZM152.741 33.928L151.909 33.3733L151.909 33.3733L152.741 33.928ZM153.253 32.072H154.253V31.072H153.253V32.072ZM150.565 31.496L150.097 32.3798L150.107 32.3852L150.118 32.3904L150.565 31.496ZM148.965 30.088L148.097 30.5841L148.105 30.5983L148.113 30.6121L148.965 30.088ZM149.669 24.712L150.356 25.438L150.356 25.438L149.669 24.712ZM167.333 25.16L166.717 25.948L166.717 25.948L167.333 25.16ZM163.749 41.096L164.36 41.8873L164.366 41.8829L163.749 41.096ZM137.701 42.888L137.279 43.7947L137.283 43.7966L137.701 42.888ZM128.933 35.272L128.085 35.802L128.089 35.8082L128.093 35.8144L128.933 35.272ZM132.005 6.792L132.697 7.51368L132.697 7.51368L132.005 6.792ZM156.005 1.416L155.812 2.39731L155.822 2.39913L155.831 2.40078L156.005 1.416ZM161.381 3.016L160.944 3.91587L160.955 3.92082L161.381 3.016ZM164.965 5.512L164.242 6.20322L164.257 6.21928L164.274 6.23464L164.965 5.512ZM167.013 8.52L166.072 8.85872L166.078 8.87516L166.084 8.89139L167.013 8.52ZM167.269 14.216L168.212 14.5488L168.215 14.5405L168.217 14.5322L167.269 14.216ZM165.861 16.456L165.113 15.7916L165.111 15.7944L165.861 16.456ZM152.549 17.736L151.805 18.405L151.814 18.4145L151.823 18.4237L152.549 17.736ZM152.397 11.912C152.397 11.0097 152.084 10.1858 151.344 9.62634C150.657 9.10675 149.745 8.928 148.773 8.928V10.928C149.55 10.928 149.95 11.0799 150.138 11.2217C150.272 11.3235 150.397 11.4916 150.397 11.912H152.397ZM148.773 8.928C146.531 8.928 144.718 10.2103 143.322 12.398L145.008 13.474C146.171 11.651 147.431 10.928 148.773 10.928V8.928ZM143.322 12.398C141.88 14.6572 141.245 18.2537 141.245 22.984H143.245C143.245 18.3277 143.89 15.2255 145.008 13.474L143.322 12.398ZM141.245 22.984C141.245 27.4052 141.974 30.8434 143.611 33.1061L145.231 31.9339C143.967 30.1859 143.245 27.2668 143.245 22.984H141.245ZM143.625 33.1255C145.259 35.2732 147.279 36.464 149.669 36.464V34.464C148.048 34.464 146.569 33.6921 145.217 31.9145L143.625 33.1255ZM149.669 36.464C150.445 36.464 151.177 36.3077 151.844 35.9744L150.95 34.1856C150.592 34.3643 150.172 34.464 149.669 34.464V36.464ZM151.816 35.988C152.539 35.654 153.13 35.1471 153.573 34.4827L151.909 33.3733C151.669 33.7329 151.363 33.994 150.978 34.172L151.816 35.988ZM153.573 34.4827C154.042 33.7788 154.253 32.9587 154.253 32.072H152.253C152.253 32.6359 152.122 33.0532 151.909 33.3733L153.573 34.4827ZM153.253 31.072C152.354 31.072 151.617 30.904 151.012 30.6016L150.118 32.3904C151.049 32.856 152.103 33.072 153.253 33.072V31.072ZM151.033 30.6122C150.425 30.2903 150.043 29.9318 149.816 29.5639L148.113 30.6121C148.569 31.3535 149.254 31.9337 150.097 32.3798L151.033 30.6122ZM149.833 29.5919C149.577 29.1444 149.453 28.6752 149.453 28.168H147.453C147.453 29.0261 147.67 29.8369 148.097 30.5841L149.833 29.5919ZM149.453 28.168C149.453 26.8004 149.811 25.9547 150.356 25.438L148.981 23.986C147.905 25.0053 147.453 26.4636 147.453 28.168H149.453ZM150.356 25.438C150.884 24.9386 151.944 24.56 153.829 24.56V22.56C151.788 22.56 150.075 22.9494 148.981 23.986L150.356 25.438ZM153.829 24.56H161.573V22.56H153.829V24.56ZM161.573 24.56C163.917 24.56 165.589 25.0667 166.717 25.948L167.948 24.372C166.346 23.12 164.178 22.56 161.573 22.56V24.56ZM166.717 25.948C167.731 26.7397 168.381 28.2396 168.381 30.792H170.381C170.381 27.9684 169.666 25.7136 167.948 24.372L166.717 25.948ZM168.381 30.792C168.381 34.3434 166.702 37.5093 163.132 40.3091L164.366 41.8829C168.304 38.7947 170.381 35.0913 170.381 30.792H168.381ZM163.137 40.3047C159.573 43.0586 155.335 44.448 150.373 44.448V46.448C155.736 46.448 160.415 44.9361 164.36 41.8873L163.137 40.3047ZM150.373 44.448C145.758 44.448 141.68 43.617 138.118 41.9794L137.283 43.7966C141.145 45.5723 145.515 46.448 150.373 46.448V44.448ZM138.122 41.9813C134.623 40.3534 131.846 37.9404 129.773 34.7296L128.093 35.8144C130.372 39.345 133.44 42.0092 137.279 43.7947L138.122 41.9813ZM129.781 34.742C127.761 31.511 126.733 27.669 126.733 23.176H124.733C124.733 27.9844 125.837 32.2063 128.085 35.802L129.781 34.742ZM126.733 23.176C126.733 16.4797 128.75 11.2998 132.697 7.51368L131.313 6.07032C126.897 10.3056 124.733 16.0483 124.733 23.176H126.733ZM132.697 7.51368C136.657 3.71524 141.938 1.776 148.645 1.776V-0.224003C141.528 -0.224003 135.715 1.84742 131.313 6.07032L132.697 7.51368ZM148.645 1.776C151.325 1.776 153.712 1.98553 155.812 2.39731L156.197 0.434683C153.945 -0.00687337 151.426 -0.224003 148.645 -0.224003V1.776ZM155.831 2.40078C157.95 2.77476 159.646 3.28624 160.944 3.91581L161.817 2.11619C160.3 1.38042 158.411 0.825231 156.179 0.431213L155.831 2.40078ZM160.955 3.92082C162.314 4.5604 163.402 5.3252 164.242 6.20322L165.687 4.82077C164.65 3.73613 163.349 2.83693 161.807 2.11118L160.955 3.92082ZM164.274 6.23464C165.165 7.08731 165.75 7.96367 166.072 8.85872L167.954 8.18128C167.508 6.94299 166.727 5.81401 165.656 4.78936L164.274 6.23464ZM166.084 8.89139C166.464 9.8396 166.653 10.8229 166.653 11.848H168.653C168.653 10.5691 168.415 9.33373 167.941 8.14861L166.084 8.89139ZM166.653 11.848C166.653 12.5513 166.542 13.2339 166.32 13.8998L168.217 14.5322C168.507 13.6621 168.653 12.766 168.653 11.848H166.653ZM166.326 13.8832C166.125 14.4528 165.737 15.0898 165.113 15.7916L166.608 17.1204C167.35 16.2862 167.901 15.4298 168.212 14.5488L166.326 13.8832ZM165.111 15.7944C164.628 16.3412 163.804 16.8636 162.528 17.3023L163.178 19.1937C164.632 18.6937 165.813 18.0214 166.611 17.1176L165.111 15.7944ZM162.528 17.3023C161.295 17.726 159.768 17.952 157.925 17.952V19.952C159.921 19.952 161.68 19.7086 163.178 19.1937L162.528 17.3023ZM157.925 17.952C156.556 17.952 155.485 17.8527 154.689 17.6726C153.874 17.4882 153.46 17.2441 153.275 17.0483L151.823 18.4237C152.405 19.0386 153.272 19.4025 154.248 19.6234C155.244 19.8486 156.477 19.952 157.925 19.952V17.952ZM153.292 17.067C153.087 16.8394 152.845 16.352 152.666 15.446C152.491 14.5634 152.397 13.3919 152.397 11.912H150.397C150.397 13.4614 150.494 14.7753 150.704 15.834C150.909 16.8694 151.242 17.7792 151.805 18.405L153.292 17.067ZM200.471 34.12L199.703 33.4798L199.697 33.4875L199.69 33.4953L200.471 34.12ZM202.711 29.384L201.741 29.1415L201.739 29.1519L201.736 29.1624L202.711 29.384ZM202.711 17.224L201.739 17.4566L201.74 17.4615L202.711 17.224ZM200.407 12.232L199.607 12.832L199.613 12.8399L199.619 12.8476L200.407 12.232ZM190.871 17.224L189.904 16.9716L189.904 16.9716L190.871 17.224ZM190.807 29.384L189.837 29.6265L189.84 29.6369L189.842 29.6471L190.807 29.384ZM193.111 34.12L192.33 34.7447L192.337 34.7525L192.343 34.7602L193.111 34.12ZM208.087 42.888L208.53 43.7847L208.539 43.7802L208.087 42.888ZM185.367 42.888L184.911 43.7778L184.918 43.7813L184.925 43.7847L185.367 42.888ZM177.367 35.272L178.227 34.7607L178.227 34.7607L177.367 35.272ZM180.567 6.92L181.267 7.63443L181.267 7.63436L180.567 6.92ZM212.951 6.92L212.251 7.63437L212.255 7.63801L212.951 6.92ZM216.151 35.272L215.297 34.7527L215.292 34.7607L216.151 35.272ZM196.759 37.04C198.556 37.04 200.066 36.227 201.252 34.7447L199.69 33.4953C198.828 34.573 197.864 35.04 196.759 35.04V37.04ZM201.239 34.7602C202.422 33.3414 203.23 31.6129 203.686 29.6056L201.736 29.1624C201.339 30.9098 200.654 32.3386 199.703 33.4798L201.239 34.7602ZM203.681 29.6265C204.172 27.6623 204.415 25.5748 204.415 23.368H202.415C202.415 25.4278 202.189 27.3511 201.741 29.1415L203.681 29.6265ZM204.415 23.368C204.415 21.1199 204.173 18.9916 203.683 16.9865L201.74 17.4615C202.188 19.2964 202.415 21.2641 202.415 23.368H204.415ZM203.684 16.9914C203.187 14.9121 202.364 13.1118 201.195 11.6164L199.619 12.8476C200.584 14.0829 201.297 15.6105 201.739 17.4566L203.684 16.9914ZM201.207 11.632C200.039 10.0747 198.55 9.184 196.759 9.184V11.184C197.785 11.184 198.727 11.6586 199.607 12.832L201.207 11.632ZM196.759 9.184C195.001 9.184 193.536 10.0847 192.375 11.632L193.975 12.832C194.863 11.6486 195.787 11.184 196.759 11.184V9.184ZM192.375 11.632C191.26 13.1188 190.442 14.9065 189.904 16.9716L191.839 17.4764C192.324 15.6162 193.042 14.0758 193.975 12.832L192.375 11.632ZM189.904 16.9716C189.369 19.0208 189.103 21.1539 189.103 23.368H191.103C191.103 21.3154 191.349 19.3525 191.839 17.4764L189.904 16.9716ZM189.103 23.368C189.103 25.5748 189.346 27.6623 189.837 29.6265L191.777 29.1415C191.33 27.3511 191.103 25.4278 191.103 23.368H189.103ZM189.842 29.6471C190.384 31.632 191.207 33.34 192.33 34.7447L193.892 33.4953C192.968 32.34 192.255 30.8907 191.772 29.1209L189.842 29.6471ZM192.343 34.7602C193.554 36.2131 195.032 37.04 196.759 37.04V35.04C195.756 35.04 194.802 34.5869 193.879 33.4798L192.343 34.7602ZM207.645 41.9913C204.428 43.5794 200.785 44.384 196.695 44.384V46.384C201.054 46.384 205.005 45.5246 208.53 43.7847L207.645 41.9913ZM196.695 44.384C192.65 44.384 189.028 43.58 185.81 41.9913L184.925 43.7847C188.448 45.524 192.378 46.384 196.695 46.384V44.384ZM185.824 41.9982C182.671 40.3816 180.141 37.9781 178.227 34.7607L176.508 35.7833C178.604 39.3073 181.407 41.9811 184.911 43.7778L185.824 41.9982ZM178.227 34.7607C176.328 31.5685 175.359 27.7833 175.359 23.368H173.359C173.359 28.0834 174.396 32.2341 176.508 35.7833L178.227 34.7607ZM175.359 23.368C175.359 16.669 177.357 11.4639 181.267 7.63443L179.868 6.20556C175.5 10.4828 173.359 16.243 173.359 23.368H175.359ZM181.267 7.63436C185.237 3.74576 190.371 1.776 196.759 1.776V-0.224003C189.921 -0.224003 184.261 1.90224 179.867 6.20564L181.267 7.63436ZM196.759 1.776C203.148 1.776 208.282 3.74576 212.251 7.63436L213.651 6.20564C209.258 1.90224 203.597 -0.224003 196.759 -0.224003V1.776ZM212.255 7.63801C216.206 11.4681 218.223 16.672 218.223 23.368H220.223C220.223 16.24 218.059 10.4786 213.647 6.20199L212.255 7.63801ZM218.223 23.368C218.223 27.7795 217.235 31.5619 215.297 34.7527L217.006 35.7913C219.163 32.2408 220.223 28.0871 220.223 23.368H218.223ZM215.292 34.7607C213.38 37.9749 210.83 40.3783 207.636 41.9958L208.539 43.7802C212.086 41.9844 214.912 39.3105 217.011 35.7833L215.292 34.7607ZM281.829 21.576H282.829L280.931 21.1372L281.829 21.576ZM273.829 37.96L274.724 38.4072L274.728 38.3988L273.829 37.96ZM271.653 40.904L272.239 41.7147L272.253 41.7043L272.267 41.6934L271.653 40.904ZM265.445 40.328L264.723 41.0192L264.73 41.0273L264.738 41.0351L265.445 40.328ZM261.797 35.08L260.921 35.5618L260.929 35.5761L260.937 35.5902L261.797 35.08ZM254.373 21.576L255.25 21.0942L253.373 21.576H254.373ZM253.093 43.72L252.386 43.0129L252.377 43.022L252.368 43.0313L253.093 43.72ZM245.285 43.784L244.578 44.4911L244.587 44.5002L244.597 44.509L245.285 43.784ZM246.245 3.528L246.989 4.19591L246.989 4.19591L246.245 3.528ZM257.253 1.736L256.822 2.63813L256.838 2.64589L256.855 2.65307L257.253 1.736ZM259.429 3.272L258.643 3.88982L258.667 3.92107L258.694 3.95028L259.429 3.272ZM260.901 5.384L261.811 4.96809L261.795 4.93447L261.777 4.90208L260.901 5.384ZM269.477 24.136L268.568 24.5519L269.443 26.4662L270.374 24.5782L269.477 24.136ZM278.565 5.704L277.676 5.24693L277.672 5.25432L277.668 5.26177L278.565 5.704ZM292.005 2.12L291.558 3.01443L291.569 3.02009L291.581 3.02546L292.005 2.12ZM295.205 5.32L294.316 5.77735L294.324 5.79273L294.332 5.80782L295.205 5.32ZM296.421 38.664L297.421 38.6741V38.664H296.421ZM283.685 43.464L283.019 44.2099L283.033 44.2224L283.048 44.2344L283.685 43.464ZM281.829 38.344H280.829V38.3531L280.829 38.3622L281.829 38.344ZM280.931 21.1372L272.931 37.5212L274.728 38.3988L282.728 22.0148L280.931 21.1372ZM272.935 37.5128C272.285 38.8127 271.641 39.6464 271.039 40.1146L272.267 41.6934C273.201 40.9669 274.008 39.838 274.724 38.4072L272.935 37.5128ZM271.068 40.0933C270.491 40.5097 269.785 40.736 268.901 40.736V42.736C270.15 42.736 271.279 42.4077 272.239 41.7147L271.068 40.0933ZM268.901 40.736C267.793 40.736 266.898 40.3661 266.152 39.6209L264.738 41.0351C265.87 42.1672 267.279 42.736 268.901 42.736V40.736ZM266.168 39.6368C265.313 38.7435 264.146 37.0789 262.657 34.5698L260.937 35.5902C262.435 38.1158 263.7 39.9498 264.723 41.0192L266.168 39.6368ZM262.674 34.5982L255.25 21.0942L253.497 22.0578L260.921 35.5618L262.674 34.5982ZM253.373 21.576V39.688H255.373V21.576H253.373ZM253.373 39.688C253.373 41.3931 252.974 42.4251 252.386 43.0129L253.8 44.4271C254.919 43.3083 255.373 41.6523 255.373 39.688H253.373ZM252.368 43.0313C251.813 43.6153 250.887 44 249.381 44V46C251.204 46 252.752 45.5314 253.818 44.4087L252.368 43.0313ZM249.381 44C247.614 44 246.557 43.6133 245.974 43.059L244.597 44.509C245.72 45.5761 247.393 46 249.381 46V44ZM245.992 43.0769C245.444 42.5284 245.005 41.2555 245.005 38.856H243.005C243.005 41.3205 243.42 43.3329 244.578 44.4911L245.992 43.0769ZM245.005 38.856V10.952H243.005V38.856H245.005ZM245.005 10.952C245.005 7.79973 245.723 5.6066 246.989 4.19591L245.501 2.86009C243.78 4.7774 243.005 7.5336 243.005 10.952H245.005ZM246.989 4.19591C248.206 2.83999 250.377 2.032 253.797 2.032V0.0319977C250.135 0.0319977 247.271 0.888009 245.501 2.86009L246.989 4.19591ZM253.797 2.032C255.002 2.032 256.001 2.24562 256.822 2.63813L257.685 0.833862C256.543 0.287704 255.238 0.0319977 253.797 0.0319977V2.032ZM256.855 2.65307C257.742 3.03911 258.309 3.46517 258.643 3.88982L260.216 2.65418C259.611 1.88416 258.727 1.28622 257.652 0.818927L256.855 2.65307ZM258.694 3.95028C259.138 4.43118 259.584 5.06419 260.025 5.86592L261.777 4.90208C261.28 3.99713 260.744 3.22215 260.164 2.59372L258.694 3.95028ZM259.992 5.79991L268.568 24.5519L270.387 23.7201L261.811 4.96809L259.992 5.79991ZM270.374 24.5782L279.462 6.14622L277.668 5.26177L268.58 23.6938L270.374 24.5782ZM279.455 6.16107C280.159 4.79098 281.125 3.79261 282.353 3.1274C283.592 2.45707 285.152 2.096 287.077 2.096V0.0959969C284.907 0.0959969 283 0.502924 281.401 1.36859C279.793 2.23939 278.55 3.54502 277.676 5.24693L279.455 6.16107ZM287.077 2.096C288.881 2.096 290.363 2.41675 291.558 3.01443L292.452 1.22557C290.917 0.45791 289.113 0.0959969 287.077 0.0959969V2.096ZM291.581 3.02546C292.723 3.56093 293.637 4.45709 294.316 5.77735L296.095 4.86265C295.238 3.19624 294.018 1.95907 292.43 1.21454L291.581 3.02546ZM294.332 5.80782C295.036 7.0677 295.421 8.72097 295.421 10.824H297.421C297.421 8.48969 296.995 6.47363 296.078 4.83218L294.332 5.80782ZM295.421 10.824V38.664H297.421V10.824H295.421ZM295.421 38.6539C295.402 40.544 294.809 41.8082 293.768 42.6321C292.686 43.4892 290.959 44 288.421 44V46C291.174 46 293.426 45.4548 295.01 44.1999C296.637 42.9118 297.398 41.008 297.421 38.6741L295.421 38.6539ZM288.421 44C286.687 44 285.347 43.5415 284.323 42.6936L283.048 44.2344C284.498 45.4345 286.316 46 288.421 46V44ZM284.351 42.7181C283.445 41.9091 282.869 40.5249 282.829 38.3258L280.829 38.3622C280.875 40.8565 281.536 42.8856 283.019 44.2099L284.351 42.7181ZM282.829 38.344V21.576H280.829V38.344H282.829ZM335.411 20.104L334.782 20.8812L334.791 20.8884L334.8 20.8953L335.411 20.104ZM335.155 26.952L335.644 27.8246L335.655 27.8182L335.155 26.952ZM319.731 27.848V26.848H318.731V27.848H319.731ZM319.731 34.632H318.731V35.6274L319.727 35.632L319.731 34.632ZM333.619 34.696L333.615 35.696H333.619V34.696ZM338.739 35.784L338.161 36.6L338.18 36.6136L338.2 36.6263L338.739 35.784ZM338.483 43.784L337.935 42.9475L337.928 42.952L337.922 42.9565L338.483 43.784ZM306.675 43.016L305.911 43.6609L305.922 43.6738L305.933 43.6863L306.675 43.016ZM338.483 2.312L337.942 3.15318L337.949 3.15746L337.956 3.16164L338.483 2.312ZM338.739 10.44L339.317 11.256L339.324 11.2515L338.739 10.44ZM319.667 11.528V10.528H318.667V11.528H319.667ZM319.667 19.016H318.667V20.016H319.667V19.016ZM330.675 20.016C332.895 20.016 334.169 20.3852 334.782 20.8812L336.04 19.3268C334.861 18.3721 332.978 18.016 330.675 18.016V20.016ZM334.8 20.8953C335.394 21.3542 335.819 22.2237 335.819 23.816H337.819C337.819 21.9096 337.306 20.3044 336.023 19.3127L334.8 20.8953ZM335.819 23.816C335.819 24.9663 335.409 25.6512 334.656 26.0858L335.655 27.8182C337.12 26.9728 337.819 25.567 337.819 23.816H335.819ZM334.667 26.0795C333.83 26.5477 332.359 26.848 330.099 26.848V28.848C332.448 28.848 334.347 28.5509 335.644 27.8245L334.667 26.0795ZM330.099 26.848H319.731V28.848H330.099V26.848ZM318.731 27.848V34.632H320.731V27.848H318.731ZM319.727 35.632L333.615 35.696L333.624 33.696L319.736 33.632L319.727 35.632ZM333.619 35.696C335.961 35.696 337.401 36.0617 338.161 36.6L339.317 34.968C338.029 34.0556 336.056 33.696 333.619 33.696V35.696ZM338.2 36.6263C338.87 37.055 339.339 37.8905 339.339 39.496H341.339C341.339 37.5175 340.742 35.8783 339.278 34.9417L338.2 36.6263ZM339.339 39.496C339.339 41.3489 338.789 42.388 337.935 42.9475L339.031 44.6205C340.652 43.5587 341.339 41.7391 341.339 39.496H339.339ZM337.922 42.9565C336.974 43.5999 335.381 44 332.979 44V46C335.527 46 337.604 45.5894 339.045 44.6115L337.922 42.9565ZM332.979 44H312.243V46H332.979V44ZM312.243 44C309.889 44 308.355 43.3835 307.417 42.3457L305.933 43.6863C307.385 45.2939 309.563 46 312.243 46V44ZM307.44 42.3711C306.528 41.2903 305.947 39.2117 305.947 35.848H303.947C303.947 39.3109 304.519 42.0111 305.911 43.6609L307.44 42.3711ZM305.947 35.848V8.84H303.947V35.848H305.947ZM305.947 8.84C305.947 6.42171 306.522 4.79375 307.496 3.76875C308.461 2.75335 309.979 2.16 312.243 2.16V0.159996C309.644 0.159996 307.514 0.846646 306.046 2.39125C304.588 3.92624 303.947 6.13829 303.947 8.84H305.947ZM312.243 2.16H332.979V0.159996H312.243V2.16ZM332.979 2.16C335.387 2.16 336.989 2.54038 337.942 3.15318L339.024 1.47082C337.588 0.547614 335.521 0.159996 332.979 0.159996V2.16ZM337.956 3.16164C338.794 3.68211 339.339 4.66785 339.339 6.472H341.339C341.339 4.26548 340.647 2.47789 339.011 1.46236L337.956 3.16164ZM339.339 6.472C339.339 8.17437 338.861 9.12022 338.155 9.62846L339.324 11.2515C340.751 10.2238 341.339 8.52429 341.339 6.472H339.339ZM338.161 9.62397C337.401 10.1623 335.961 10.528 333.619 10.528V12.528C336.056 12.528 338.029 12.1684 339.317 11.256L338.161 9.62397ZM333.619 10.528H319.667V12.528H333.619V10.528ZM318.667 11.528V19.016H320.667V11.528H318.667ZM319.667 20.016H330.675V18.016H319.667V20.016ZM371.721 34.12L370.953 33.4798L370.947 33.4875L370.94 33.4953L371.721 34.12ZM373.961 29.384L372.991 29.1415L372.989 29.1519L372.986 29.1624L373.961 29.384ZM373.961 17.224L372.989 17.4566L372.99 17.4615L373.961 17.224ZM371.657 12.232L370.857 12.832L370.863 12.8399L370.869 12.8476L371.657 12.232ZM362.121 17.224L361.154 16.9716L361.154 16.9716L362.121 17.224ZM362.057 29.384L361.087 29.6265L361.09 29.6369L361.092 29.6471L362.057 29.384ZM364.361 34.12L363.58 34.7447L363.587 34.7525L363.593 34.7602L364.361 34.12ZM379.337 42.888L379.78 43.7847L379.789 43.7802L379.337 42.888ZM356.617 42.888L356.161 43.7778L356.168 43.7813L356.175 43.7847L356.617 42.888ZM348.617 35.272L349.477 34.7607L349.477 34.7607L348.617 35.272ZM351.817 6.92L352.517 7.63443L352.517 7.63436L351.817 6.92ZM384.201 6.92L383.501 7.63437L383.505 7.63801L384.201 6.92ZM387.401 35.272L386.547 34.7527L386.542 34.7607L387.401 35.272ZM368.009 37.04C369.806 37.04 371.316 36.227 372.502 34.7447L370.94 33.4953C370.078 34.573 369.114 35.04 368.009 35.04V37.04ZM372.489 34.7602C373.672 33.3414 374.48 31.6129 374.936 29.6056L372.986 29.1624C372.589 30.9098 371.904 32.3386 370.953 33.4798L372.489 34.7602ZM374.931 29.6265C375.422 27.6623 375.665 25.5748 375.665 23.368H373.665C373.665 25.4278 373.439 27.3511 372.991 29.1415L374.931 29.6265ZM375.665 23.368C375.665 21.1199 375.423 18.9916 374.933 16.9865L372.99 17.4615C373.438 19.2964 373.665 21.2641 373.665 23.368H375.665ZM374.934 16.9914C374.437 14.9121 373.614 13.1118 372.445 11.6164L370.869 12.8476C371.834 14.0829 372.547 15.6105 372.989 17.4566L374.934 16.9914ZM372.457 11.632C371.289 10.0747 369.8 9.184 368.009 9.184V11.184C369.035 11.184 369.977 11.6586 370.857 12.832L372.457 11.632ZM368.009 9.184C366.251 9.184 364.786 10.0847 363.625 11.632L365.225 12.832C366.113 11.6486 367.037 11.184 368.009 11.184V9.184ZM363.625 11.632C362.51 13.1188 361.692 14.9065 361.154 16.9716L363.089 17.4764C363.574 15.6162 364.292 14.0758 365.225 12.832L363.625 11.632ZM361.154 16.9716C360.619 19.0208 360.353 21.1539 360.353 23.368H362.353C362.353 21.3154 362.599 19.3525 363.089 17.4764L361.154 16.9716ZM360.353 23.368C360.353 25.5748 360.596 27.6623 361.087 29.6265L363.027 29.1415C362.58 27.3511 362.353 25.4278 362.353 23.368H360.353ZM361.092 29.6471C361.634 31.632 362.457 33.34 363.58 34.7447L365.142 33.4953C364.218 32.34 363.505 30.8907 363.022 29.1209L361.092 29.6471ZM363.593 34.7602C364.804 36.2131 366.282 37.04 368.009 37.04V35.04C367.006 35.04 366.052 34.5869 365.129 33.4798L363.593 34.7602ZM378.895 41.9913C375.678 43.5794 372.035 44.384 367.945 44.384V46.384C372.304 46.384 376.255 45.5246 379.78 43.7847L378.895 41.9913ZM367.945 44.384C363.9 44.384 360.278 43.58 357.06 41.9913L356.175 43.7847C359.698 45.524 363.628 46.384 367.945 46.384V44.384ZM357.074 41.9982C353.921 40.3816 351.391 37.9781 349.477 34.7607L347.758 35.7833C349.854 39.3073 352.657 41.9811 356.161 43.7778L357.074 41.9982ZM349.477 34.7607C347.578 31.5685 346.609 27.7833 346.609 23.368H344.609C344.609 28.0834 345.646 32.2341 347.758 35.7833L349.477 34.7607ZM346.609 23.368C346.609 16.669 348.607 11.4639 352.517 7.63443L351.118 6.20556C346.75 10.4828 344.609 16.243 344.609 23.368H346.609ZM352.517 7.63436C356.487 3.74576 361.621 1.776 368.009 1.776V-0.224003C361.171 -0.224003 355.511 1.90224 351.117 6.20564L352.517 7.63436ZM368.009 1.776C374.398 1.776 379.532 3.74576 383.501 7.63436L384.901 6.20564C380.508 1.90224 374.847 -0.224003 368.009 -0.224003V1.776ZM383.505 7.63801C387.456 11.4681 389.473 16.672 389.473 23.368H391.473C391.473 16.24 389.309 10.4786 384.897 6.20199L383.505 7.63801ZM389.473 23.368C389.473 27.7795 388.485 31.5619 386.547 34.7527L388.256 35.7913C390.413 32.2408 391.473 28.0871 391.473 23.368H389.473ZM386.542 34.7607C384.63 37.9749 382.08 40.3783 378.886 41.9958L379.789 43.7802C383.336 41.9844 386.162 39.3105 388.261 35.7833L386.542 34.7607ZM439.669 32.264L440.611 32.6003L440.613 32.5934L439.669 32.264ZM440.629 23.368L439.629 23.3598V23.368H440.629ZM440.757 7.688L441.757 7.69616V7.688H440.757ZM451.509 1.928L451.03 2.80589L451.039 2.81031L451.047 2.81458L451.509 1.928ZM454.005 4.936L454.915 4.52024L454.915 4.52024L454.005 4.936ZM455.413 11.016L456.408 10.9165L456.408 10.9165L455.413 11.016ZM455.157 28.232L454.176 28.0396L454.176 28.0396L455.157 28.232ZM450.805 38.344L450.015 37.7318L450.012 37.7356L450.805 38.344ZM447.669 41.544L448.279 42.3366L448.279 42.3366L447.669 41.544ZM444.149 43.72L444.558 44.6325L444.571 44.6267L444.584 44.6206L444.149 43.72ZM440.501 44.936L440.683 45.9193L440.697 45.9167L440.711 45.9138L440.501 44.936ZM426.677 41.608L427.293 40.8198L426.662 40.3275L426.043 40.8345L426.677 41.608ZM411.253 44.68L410.959 45.6358L410.97 45.6392L410.982 45.6424L411.253 44.68ZM406.133 42.12L405.56 42.9393L405.569 42.9458L406.133 42.12ZM401.589 37.704L400.785 38.2979L400.792 38.3071L401.589 37.704ZM398.325 30.792L397.363 31.0648L397.366 31.0734L397.368 31.082L398.325 30.792ZM397.877 8.648L396.896 8.45752L396.894 8.4646L396.893 8.4717L397.877 8.648ZM400.309 2.824L399.631 2.08919L399.624 2.09583L399.617 2.10261L400.309 2.824ZM409.269 2.056L408.822 2.95043L408.837 2.958L408.853 2.96506L409.269 2.056ZM411.445 4.168L412.356 3.7542L412.356 3.7542L411.445 4.168ZM412.085 7.816L411.085 7.816L411.085 7.8201L412.085 7.816ZM412.149 23.432H413.149L413.149 23.4279L412.149 23.432ZM413.109 32.328L414.053 31.9986L414.053 31.9986L413.109 32.328ZM418.997 33.928L419.851 34.4494L419.857 34.4393L419.863 34.429L418.997 33.928ZM419.957 30.088L420.953 30.1851L420.968 30.0256L420.933 29.8693L419.957 30.088ZM419.317 11.464L418.32 11.391L418.32 11.391L419.317 11.464ZM419.893 6.92L418.913 6.72388L418.913 6.72388L419.893 6.92ZM423.157 3.016L423.439 3.97536L423.457 3.97033L423.473 3.96468L423.157 3.016ZM428.277 2.696L428.201 3.69307L428.206 3.69346L428.277 2.696ZM429.941 3.08L429.557 4.00307L429.557 4.00308L429.941 3.08ZM432.181 4.616L431.338 5.15287L431.338 5.15287L432.181 4.616ZM432.885 5.832L431.991 6.27921L431.991 6.27921L432.885 5.832ZM433.333 7.496L432.347 7.6604L432.351 7.6868L432.357 7.71293L433.333 7.496ZM433.653 9.544L432.656 9.61524L432.659 9.65583L432.665 9.69605L433.653 9.544ZM433.781 12.104H432.781V12.1232L432.782 12.1424L433.781 12.104ZM433.845 15.048H432.845V15.0743L432.847 15.1006L433.845 15.048ZM433.077 30.472L432.1 30.2602L432.065 30.42L432.083 30.5824L433.077 30.472ZM434.037 33.864L433.198 34.4072L433.198 34.4073L434.037 33.864ZM436.213 35.952C437.235 35.952 438.163 35.6727 438.939 35.0694C439.705 34.474 440.246 33.6219 440.611 32.6003L438.728 31.9277C438.452 32.6981 438.098 33.19 437.711 33.4906C437.335 33.7833 436.856 33.952 436.213 33.952V35.952ZM440.613 32.5934C441.312 30.5896 441.629 27.4801 441.629 23.368H439.629C439.629 27.4479 439.306 30.2691 438.725 31.9346L440.613 32.5934ZM441.629 23.3762L441.757 7.69616L439.757 7.67984L439.629 23.3598L441.629 23.3762ZM441.757 7.688C441.757 5.5471 442.246 4.22138 443 3.46711L441.586 2.05289C440.292 3.34662 439.757 5.30623 439.757 7.688H441.757ZM443 3.46711C443.785 2.6826 445.265 2.16 447.733 2.16V0.159996C445.081 0.159996 442.935 0.704058 441.586 2.05289L443 3.46711ZM447.733 2.16C449.219 2.16 450.292 2.4032 451.03 2.80589L451.988 1.0501C450.849 0.428797 449.405 0.159996 447.733 0.159996V2.16ZM451.047 2.81458C451.756 3.18447 452.463 3.96694 453.096 5.35176L454.915 4.52024C454.182 2.91839 453.226 1.69553 451.972 1.04141L451.047 2.81458ZM453.096 5.35176C453.714 6.70502 454.168 8.61018 454.418 11.1155L456.408 10.9165C456.147 8.30182 455.661 6.15365 454.915 4.52024L453.096 5.35176ZM454.418 11.1155C454.669 13.6283 454.797 16.9831 454.797 21.192H456.797C456.797 16.9529 456.669 13.5237 456.408 10.9165L454.418 11.1155ZM454.797 21.192C454.797 23.6532 454.589 25.9348 454.176 28.0396L456.139 28.4244C456.579 26.1772 456.797 23.7654 456.797 21.192H454.797ZM454.176 28.0396C453.76 30.1587 453.204 31.982 452.516 33.5196L454.342 34.3364C455.105 32.6313 455.701 30.6573 456.139 28.4244L454.176 28.0396ZM452.516 33.5196C451.822 35.0729 450.987 36.4758 450.015 37.7318L451.596 38.9562C452.672 37.5669 453.586 36.0258 454.342 34.3364L452.516 33.5196ZM450.012 37.7356C449.075 38.9567 448.09 39.9585 447.06 40.7514L448.279 42.3366C449.467 41.4228 450.572 40.2913 451.599 38.9524L450.012 37.7356ZM447.06 40.7514C446.004 41.5636 444.889 42.2525 443.715 42.8194L444.584 44.6206C445.884 43.9928 447.116 43.2311 448.279 42.3366L447.06 40.7514ZM443.74 42.8075C442.56 43.3365 441.411 43.7184 440.292 43.9582L440.711 45.9138C441.981 45.6416 443.264 45.2128 444.558 44.6325L443.74 42.8075ZM440.319 43.9527C439.224 44.1555 438.154 44.256 437.109 44.256V46.256C438.283 46.256 439.475 46.1431 440.683 45.9193L440.319 43.9527ZM437.109 44.256C433.499 44.256 430.237 43.1189 427.293 40.8198L426.062 42.3962C429.347 44.9611 433.039 46.256 437.109 46.256V44.256ZM426.043 40.8345C423.146 43.209 419.891 44.384 416.245 44.384V46.384C420.365 46.384 424.065 45.0416 427.311 42.3815L426.043 40.8345ZM416.245 44.384C414.677 44.384 413.104 44.1629 411.525 43.7176L410.982 45.6424C412.731 46.1357 414.486 46.384 416.245 46.384V44.384ZM411.547 43.7242C409.997 43.2473 408.381 42.444 406.697 41.2942L405.569 42.9458C407.384 44.1853 409.181 45.0887 410.959 45.6358L411.547 43.7242ZM406.707 41.3008C405.09 40.1691 403.65 38.7713 402.387 37.1009L400.792 38.3071C402.174 40.1353 403.763 41.6816 405.56 42.9392L406.707 41.3008ZM402.394 37.1101C401.157 35.4342 400.113 33.2418 399.282 30.502L397.368 31.082C398.245 33.9742 399.376 36.3898 400.785 38.2979L402.394 37.1101ZM399.287 30.5192C398.506 27.7623 398.109 24.6984 398.109 21.32H396.109C396.109 24.8536 396.524 28.1043 397.363 31.0648L399.287 30.5192ZM398.109 21.32C398.109 15.7463 398.366 11.5936 398.862 8.8243L396.893 8.4717C396.365 11.4197 396.109 15.7151 396.109 21.32H398.109ZM398.859 8.83848C399.406 6.01796 400.171 4.34298 401.002 3.54538L399.617 2.10261C398.314 3.35302 397.458 5.5607 396.896 8.45752L398.859 8.83848ZM400.988 3.5588C401.851 2.76153 403.173 2.288 405.109 2.288V0.287998C402.865 0.287998 400.986 0.838468 399.631 2.08919L400.988 3.5588ZM405.109 2.288C406.778 2.288 407.991 2.53488 408.822 2.95043L409.716 1.16157C408.5 0.553122 406.939 0.287998 405.109 0.287998V2.288ZM408.853 2.96506C409.68 3.3441 410.217 3.88315 410.535 4.5818L412.356 3.7542C411.82 2.57551 410.907 1.70656 409.686 1.14693L408.853 2.96506ZM410.535 4.5818C410.882 5.34579 411.085 6.4064 411.085 7.816H413.085C413.085 6.23893 412.862 4.86753 412.356 3.7542L410.535 4.5818ZM411.085 7.8201L411.149 23.4361L413.149 23.4279L413.085 7.8119L411.085 7.8201ZM411.149 23.432C411.149 27.5441 411.466 30.6536 412.165 32.6574L414.053 31.9986C413.472 30.3331 413.149 27.5119 413.149 23.432H411.149ZM412.165 32.6574C412.535 33.7189 413.114 34.595 413.944 35.2001C414.777 35.8074 415.779 36.08 416.885 36.08V34.08C416.114 34.08 415.548 33.894 415.122 33.5839C414.694 33.2717 414.323 32.7718 414.053 31.9986L412.165 32.6574ZM416.885 36.08C418.154 36.08 419.19 35.5299 419.851 34.4494L418.144 33.4065C417.866 33.8621 417.494 34.08 416.885 34.08V36.08ZM419.863 34.429C420.442 33.4285 420.778 31.9736 420.953 30.1851L418.962 29.9909C418.795 31.7011 418.491 32.8062 418.132 33.427L419.863 34.429ZM420.933 29.8693C420.404 27.5081 420.125 23.7391 420.125 18.504H418.125C418.125 23.7649 418.401 27.7186 418.981 30.3067L420.933 29.8693ZM420.125 18.504C420.125 15.5704 420.189 13.2513 420.315 11.537L418.32 11.391C418.189 13.1754 418.125 15.5496 418.125 18.504H420.125ZM420.315 11.537C420.441 9.81594 420.628 8.34437 420.874 7.11611L418.913 6.72388C418.646 8.05563 418.45 9.61339 418.32 11.391L420.315 11.537ZM420.874 7.11611C421.111 5.92794 421.478 5.24971 421.854 4.90079L420.493 3.43521C419.674 4.19562 419.187 5.35206 418.913 6.72388L420.874 7.11611ZM421.854 4.90079C422.347 4.44305 422.874 4.14166 423.439 3.97536L422.875 2.05663C421.99 2.317 421.195 2.78361 420.493 3.43521L421.854 4.90079ZM423.473 3.96468C424.096 3.75733 425.019 3.632 426.293 3.632V1.632C424.922 1.632 423.755 1.76266 422.841 2.06732L423.473 3.96468ZM426.293 3.632C427.045 3.632 427.679 3.65293 428.201 3.69305L428.354 1.69894C427.766 1.65374 427.078 1.632 426.293 1.632V3.632ZM428.206 3.69346C428.704 3.72904 429.152 3.83449 429.557 4.00307L430.326 2.15692C429.706 1.89884 429.045 1.74829 428.348 1.69854L428.206 3.69346ZM429.557 4.00308C430.056 4.21115 430.46 4.39347 430.774 4.55043L431.668 2.76157C431.3 2.57719 430.85 2.37551 430.326 2.15692L429.557 4.00308ZM430.774 4.55043C430.895 4.61113 431.094 4.77072 431.338 5.15287L433.025 4.07912C432.671 3.52261 432.23 3.0422 431.668 2.76157L430.774 4.55043ZM431.338 5.15287C431.625 5.60504 431.841 5.97902 431.991 6.27921L433.78 5.38479C433.588 5.00231 433.335 4.56562 433.025 4.07912L431.338 5.15287ZM431.991 6.27921C432.091 6.48001 432.222 6.91071 432.347 7.6604L434.32 7.3316C434.189 6.54529 434.021 5.86665 433.78 5.38478L431.991 6.27921ZM432.357 7.71293C432.52 8.4469 432.618 9.07937 432.656 9.61524L434.651 9.47275C434.604 8.81396 434.488 8.08109 434.309 7.27907L432.357 7.71293ZM432.665 9.69605C432.738 10.1716 432.781 10.9616 432.781 12.104H434.781C434.781 10.9424 434.739 10.0258 434.642 9.39194L432.665 9.69605ZM432.782 12.1424C432.824 13.2425 432.845 14.2106 432.845 15.048H434.845C434.845 14.1787 434.824 13.1841 434.781 12.0656L432.782 12.1424ZM432.847 15.1006C432.888 15.8846 432.909 17.037 432.909 18.568H434.909C434.909 17.027 434.888 15.8327 434.844 14.9954L432.847 15.1006ZM432.909 18.568C432.909 23.9308 432.631 27.8098 432.1 30.2602L434.055 30.6838C434.633 28.0142 434.909 23.9572 434.909 18.568H432.909ZM432.083 30.5824C432.26 32.1692 432.601 33.4858 433.198 34.4072L434.877 33.3207C434.534 32.7916 434.236 31.8468 434.071 30.3616L432.083 30.5824ZM433.198 34.4073C433.879 35.4601 434.947 35.952 436.213 35.952V33.952C435.517 33.952 435.134 33.7186 434.877 33.3207L433.198 34.4073Z" fill="black" mask="url(#path-1-outside-1_64_209)"/>
</svg>
